<svg class="svg-icon" style="width: 1em;height: 1em;vertical-align: middle;fill: currentColor;overflow: hidden;" viewBox="0 0 1024 1024" version="1.1" xmlns="http://www.w3.org/2000/svg"><path d="M624.64 204.8l0.04096 98.38592c17.2032-11.264 32.3584-16.50688 53.57568-16.50688 25.3952 0 43.54048 7.3728 64.9216 22.1184l9.74848 6.92224 5.07904 3.39968c8.02816 5.16096 13.96736 7.70048 21.99552 9.33888 16.42496 3.2768 37.6832-4.05504 64.75776-25.8048l51.28192 63.8976c-44.35968 35.6352-88.71936 50.91328-132.17792 42.1888-22.44608-4.5056-38.58432-12.45184-57.83552-25.84576l-9.50272-6.71744c-8.92928-6.144-12.36992-7.5776-18.26816-7.5776-4.096 0-7.33184 1.59744-18.2272 9.99424l-2.62144 1.96608c-11.96032 9.25696-22.24128 16.09728-32.768 20.84864l0.04096 65.61792c17.2032-11.264 32.3584-16.50688 53.57568-16.50688 25.3952 0 43.54048 7.3728 64.9216 22.1184l9.74848 6.92224 5.07904 3.39968c8.02816 5.16096 13.96736 7.70048 21.99552 9.33888 16.42496 3.2768 37.6832-4.05504 64.75776-25.8048l51.28192 63.8976c-44.35968 35.6352-88.71936 50.91328-132.17792 42.1888-22.44608-4.5056-38.58432-12.45184-57.83552-25.84576l-9.50272-6.71744c-8.92928-6.144-12.36992-7.5776-18.26816-7.5776-4.096 0-7.33184 1.59744-18.2272 9.99424l-2.62144 1.96608c-11.96032 9.25696-22.24128 16.09728-32.768 20.84864l0.04096 65.61792c17.2032-11.264 32.3584-16.50688 53.57568-16.50688 25.3952 0 43.54048 7.3728 64.9216 22.1184l9.74848 6.92224 5.07904 3.39968c8.02816 5.16096 13.96736 7.70048 21.99552 9.33888 16.42496 3.2768 37.6832-4.05504 64.75776-25.8048l51.28192 63.8976c-44.35968 35.6352-88.71936 50.91328-132.17792 42.1888-22.44608-4.5056-38.58432-12.45184-57.83552-25.84576l-9.50272-6.71744c-8.92928-6.144-12.36992-7.5776-18.26816-7.5776-4.096 0-7.33184 1.59744-18.2272 9.99424l-2.62144 1.96608c-11.96032 9.25696-22.24128 16.09728-32.768 20.84864V778.24h-245.76v-44.89216a92.20096 92.20096 0 0 1-27.97568 3.93216c-25.3952 0-43.54048-7.33184-64.9216-22.1184l-9.74848-6.92224-5.07904-3.39968a58.5728 58.5728 0 0 0-21.99552-9.33888c-16.42496-3.2768-37.6832 4.096-64.75776 25.8048L133.12 657.408c44.35968-35.6352 88.71936-50.91328 132.13696-42.1888 22.48704 4.5056 38.62528 12.45184 57.87648 25.84576l9.50272 6.71744c8.92928 6.18496 12.32896 7.5776 18.26816 7.5776 4.096 0 7.29088-1.55648 18.2272-9.95328l2.58048-2.048c2.4576-1.8432 4.87424-3.6864 7.20896-5.3248v-68.52608a92.20096 92.20096 0 0 1-28.01664 3.93216c-25.3952 0-43.54048-7.33184-64.9216-22.1184l-9.74848-6.92224-5.07904-3.39968a58.5728 58.5728 0 0 0-21.99552-9.33888c-16.42496-3.2768-37.6832 4.096-64.75776 25.8048L133.12 493.568c44.35968-35.6352 88.71936-50.91328 132.13696-42.1888 22.48704 4.5056 38.62528 12.45184 57.87648 25.84576l9.50272 6.71744c8.92928 6.18496 12.32896 7.5776 18.26816 7.5776 4.096 0 7.29088-1.55648 18.2272-9.95328l2.58048-2.048c2.4576-1.8432 4.87424-3.6864 7.20896-5.3248V405.62688a92.20096 92.20096 0 0 1-28.01664 3.93216c-25.3952 0-43.54048-7.33184-64.9216-22.1184l-9.74848-6.92224-5.07904-3.39968a58.5728 58.5728 0 0 0-21.99552-9.33888c-16.42496-3.2768-37.6832 4.096-64.75776 25.8048L133.12 329.728c44.35968-35.6352 88.71936-50.91328 132.13696-42.1888 22.48704 4.5056 38.62528 12.45184 57.87648 25.84576l9.50272 6.71744c8.92928 6.18496 12.32896 7.5776 18.26816 7.5776 4.096 0 7.29088-1.55648 18.2272-9.95328l2.58048-2.048c2.4576-1.8432 4.87424-3.6864 7.20896-5.3248L378.88 204.8h245.76z m-81.92 81.92h-81.92v40.96h40.96v81.92h-40.96v40.96h40.96v81.92h-40.96v40.96h40.96v81.92h-40.96v40.96h81.92V286.72z" fill="#444444" /></svg>